HIERARCHY
ROOT Hips
{
	OFFSET -14.64140 90.27770 -84.91600
	CHANNELS 6 Xposition Yposition Zposition Zrotation Xrotation Yrotation
	JOINT Spine
	{
		OFFSET 0.00000 13.20850 -1.60436
		CHANNELS 3 Zrotation Xrotation Yrotation
		JOINT Spine1
		{
			OFFSET 0.00000 8.61716 0.00000
			CHANNELS 3 Zrotation Xrotation Yrotation
			JOINT Spine2
			{
				OFFSET 0.00000 8.61717 0.00000
				CHANNELS 3 Zrotation Xrotation Yrotation
				JOINT Spine3
				{
					OFFSET 0.00000 8.61717 0.00000
					CHANNELS 3 Zrotation Xrotation Yrotation
					JOINT Neck
					{
						OFFSET 0.00000 11.07920 1.10792
						CHANNELS 3 Zrotation Xrotation Yrotation
						JOINT Neck1
						{
							OFFSET 0.00000 7.08032 0.00000
							CHANNELS 3 Zrotation Xrotation Yrotation
							JOINT Head
							{
								OFFSET 0.00000 7.08031 0.00000
								CHANNELS 3 Zrotation Xrotation Yrotation
								End site
								{
									OFFSET 0.00000 0.00000 0.00000
								}
							}
						}
					}
					JOINT RightShoulder
					{
						OFFSET -0.01000 7.91373 5.19711
						CHANNELS 3 Zrotation Xrotation Yrotation
						JOINT RightArm
						{
							OFFSET -18.41580 0.00000 0.00000
							CHANNELS 3 Zrotation Xrotation Yrotation
							JOINT RightForeArm
							{
								OFFSET -29.11090 0.00000 0.00000
								CHANNELS 3 Zrotation Xrotation Yrotation
								JOINT RightHand
								{
									OFFSET -24.65040 0.00000 0.00000
									CHANNELS 3 Zrotation Xrotation Yrotation
									JOINT RightHandThumb1
									{
										OFFSET -5.35114 -0.85590 3.97906
										CHANNELS 3 Zrotation Xrotation Yrotation
										JOINT RightHandThumb2
										{
											OFFSET -4.52789 0.00000 0.00000
											CHANNELS 3 Zrotation Xrotation Yrotation
											JOINT RightHandThumb3
											{
												OFFSET -2.46976 0.00000 0.00000
												CHANNELS 3 Zrotation Xrotation Yrotation
												End site
												{
													OFFSET 0.00000 0.00000 0.00000
												}
											}
										}
									}
									JOINT RightHandIndex1
									{
										OFFSET -14.26970 0.00000 2.88139
										CHANNELS 3 Zrotation Xrotation Yrotation
										JOINT RightHandIndex2
										{
											OFFSET -5.48836 0.00000 0.00000
											CHANNELS 3 Zrotation Xrotation Yrotation
											JOINT RightHandIndex3
											{
												OFFSET -3.01859 0.00000 0.00000
												CHANNELS 3 Zrotation Xrotation Yrotation
												End site
												{
													OFFSET 0.00000 0.00000 0.00000
												}
											}
										}
									}
									JOINT RightHandMiddle1
									{
										OFFSET -14.26970 0.00000 -0.09147
										CHANNELS 3 Zrotation Xrotation Yrotation
										JOINT RightHandMiddle2
										{
											OFFSET -6.17441 0.00000 0.00000
											CHANNELS 3 Zrotation Xrotation Yrotation
											JOINT RightHandMiddle3
											{
												OFFSET -3.56743 0.00000 0.00000
												CHANNELS 3 Zrotation Xrotation Yrotation
												End site
												{
													OFFSET 0.00000 0.00000 0.00000
												}
											}
										}
									}
									JOINT RightHandRing1
									{
										OFFSET -12.69180 0.00000 -3.06433
										CHANNELS 3 Zrotation Xrotation Yrotation
										JOINT RightHandRing2
										{
											OFFSET -5.62556 0.00000 0.00000
											CHANNELS 3 Zrotation Xrotation Yrotation
											JOINT RightHandRing3
											{
												OFFSET -3.56744 0.00000 0.00000
												CHANNELS 3 Zrotation Xrotation Yrotation
												End site
												{
													OFFSET 0.00000 0.00000 0.00000
												}
											}
										}
									}
									JOINT RightHandPinky1
									{
										OFFSET -11.11390 0.00000 -6.03719
										CHANNELS 3 Zrotation Xrotation Yrotation
										JOINT RightHandPinky2
										{
											OFFSET -4.52789 0.00000 0.00000
											CHANNELS 3 Zrotation Xrotation Yrotation
											JOINT RightHandPinky3
											{
												OFFSET -2.46976 0.00000 0.00000
												CHANNELS 3 Zrotation Xrotation Yrotation
												End site
												{
													OFFSET 0.00000 0.00000 0.00000
												}
											}
										}
									}
								}
							}
						}
					}
					JOINT LeftShoulder
					{
						OFFSET 0.01000 7.91373 5.19711
						CHANNELS 3 Zrotation Xrotation Yrotation
						JOINT LeftArm
						{
							OFFSET 18.41580 0.00000 0.00000
							CHANNELS 3 Zrotation Xrotation Yrotation
							JOINT LeftForeArm
							{
								OFFSET 29.11090 0.00000 0.00000
								CHANNELS 3 Zrotation Xrotation Yrotation
								JOINT LeftHand
								{
									OFFSET 24.65040 0.00000 0.00000
									CHANNELS 3 Zrotation Xrotation Yrotation
									JOINT LeftHandThumb1
									{
										OFFSET 5.35114 -0.85590 3.97906
										CHANNELS 3 Zrotation Xrotation Yrotation
										JOINT LeftHandThumb2
										{
											OFFSET 4.52789 0.00000 0.00000
											CHANNELS 3 Zrotation Xrotation Yrotation
											JOINT LeftHandThumb3
											{
												OFFSET 2.46977 0.00000 0.00000
												CHANNELS 3 Zrotation Xrotation Yrotation
												End site
												{
													OFFSET 0.00000 0.00000 0.00000
												}
											}
										}
									}
									JOINT LeftHandIndex1
									{
										OFFSET 14.26970 0.00000 2.88139
										CHANNELS 3 Zrotation Xrotation Yrotation
										JOINT LeftHandIndex2
										{
											OFFSET 5.48836 0.00000 0.00000
											CHANNELS 3 Zrotation Xrotation Yrotation
											JOINT LeftHandIndex3
											{
												OFFSET 3.01859 0.00000 0.00000
												CHANNELS 3 Zrotation Xrotation Yrotation
												End site
												{
													OFFSET 0.00000 0.00000 0.00000
												}
											}
										}
									}
									JOINT LeftHandMiddle1
									{
										OFFSET 14.26970 0.00000 -0.09147
										CHANNELS 3 Zrotation Xrotation Yrotation
										JOINT LeftHandMiddle2
										{
											OFFSET 6.17440 0.00000 0.00000
											CHANNELS 3 Zrotation Xrotation Yrotation
											JOINT LeftHandMiddle3
											{
												OFFSET 3.56744 0.00000 0.00000
												CHANNELS 3 Zrotation Xrotation Yrotation
												End site
												{
													OFFSET 0.00000 0.00000 0.00000
												}
											}
										}
									}
									JOINT LeftHandRing1
									{
										OFFSET 12.69180 0.00000 -3.06433
										CHANNELS 3 Zrotation Xrotation Yrotation
										JOINT LeftHandRing2
										{
											OFFSET 5.62556 0.00000 0.00000
											CHANNELS 3 Zrotation Xrotation Yrotation
											JOINT LeftHandRing3
											{
												OFFSET 3.56744 0.00000 0.00000
												CHANNELS 3 Zrotation Xrotation Yrotation
												End site
												{
													OFFSET 0.00000 0.00000 0.00000
												}
											}
										}
									}
									JOINT LeftHandPinky1
									{
										OFFSET 11.11390 0.00000 -6.03719
										CHANNELS 3 Zrotation Xrotation Yrotation
										JOINT LeftHandPinky2
										{
											OFFSET 4.52789 0.00000 0.00000
											CHANNELS 3 Zrotation Xrotation Yrotation
											JOINT LeftHandPinky3
											{
												OFFSET 2.46976 0.00000 0.00000
												CHANNELS 3 Zrotation Xrotation Yrotation
												End site
												{
													OFFSET 0.00000 0.00000 0.00000
												}
											}
										}
									}
								}
							}
						}
					}
					JOINT pCube4
					{
						OFFSET 0.00000 10.91090 1.10792
						CHANNELS 3 Zrotation Xrotation Yrotation
						End site
						{
							OFFSET 0.00000 0.00000 0.00000
						}
					}
				}
			}
		}
	}
	JOINT RightUpLeg
	{
		OFFSET -9.98441 0.00000 0.00000
		CHANNELS 3 Zrotation Xrotation Yrotation
		JOINT RightLeg
		{
			OFFSET 0.00000 -42.11790 0.00000
			CHANNELS 3 Zrotation Xrotation Yrotation
			JOINT RightFoot
			{
				OFFSET 0.00000 -45.00020 -0.00001
				CHANNELS 3 Zrotation Xrotation Yrotation
				JOINT RightForeFoot
				{
					OFFSET 0.00000 -3.74820 0.00000
					CHANNELS 3 Zrotation Xrotation Yrotation
					JOINT RightToeBase
					{
						OFFSET 0.00000 0.06325 14.43120
						CHANNELS 3 Zrotation Xrotation Yrotation
						End site
						{
							OFFSET 0.00000 0.00000 0.00000
						}
					}
				}
			}
		}
	}
	JOINT LeftUpLeg
	{
		OFFSET 9.98441 0.00000 0.00000
		CHANNELS 3 Zrotation Xrotation Yrotation
		JOINT LeftLeg
		{
			OFFSET 0.00000 -42.11800 0.00000
			CHANNELS 3 Zrotation Xrotation Yrotation
			JOINT LeftFoot
			{
				OFFSET 0.00000 -45.00070 0.00000
				CHANNELS 3 Zrotation Xrotation Yrotation
				JOINT LeftForeFoot
				{
					OFFSET 0.00000 -3.74824 0.00000
					CHANNELS 3 Zrotation Xrotation Yrotation
					JOINT LeftToeBase
					{
						OFFSET 0.00000 0.06325 14.43110
						CHANNELS 3 Zrotation Xrotation Yrotation
						End site
						{
							OFFSET 0.00000 0.00000 0.00000
						}
					}
				}
			}
		}
	}
}
MOTION
Frames: 4
Frame Time: 0.050000
0.044950213618885945 -0.023067298561360704 -0.04977702839538082 0.019307023863047112 -0.011369866979003773 0.03604662194246166 -2.4072944991061194 -0.4989708717315454 -0.8172848673901469 -0.9392152871046066 3.6869097813343026 0.39066688682271783 -1.146808883797302 -2.0686954303324216 -0.44024235035930837 -0.226491625156271 0.27551127558297056 -0.7255973523895433 -0.23951042649909288 13.915586662493531 1.057572468248871 0.26790477613205554 1.2372462602891456 0.897414519143172 -0.10200797099858502 -12.889245173238516 0.07445958169511285 -4.710597677587852 1.7408058117100316 -15.127999747774606 70.52077976728458 18.652524248868293 10.445618604354378 9.969971907260957 2.918053047342645 104.68792810195923 15.506066430109065 -0.4983899426001732 -4.3298463556725055 4.57121485847166 -0.17049466473665822 -1.6342456288223584 -0.04560145226386842 -0.043395286066388074 -56.237647986538306 -0.003542772239158788 0.018990670135792115 -56.23221235610847 -38.78919970302826 0.037968088607397976 0.047529526088897135 -0.034908294830837905 0.03126324468386056 -0.006796671069978633 0.03572708042734471 0.014092781663610107 -0.028427646040743323 -36.68346811459753 0.016594997589804397 0.009043985805763455 0.034748161097772 -0.0027554415302969994 -0.025776494238783018 -0.007258423325298596 -0.04193931986580461 -0.044121755444681644 -19.744434927695977 -0.04768880899201128 2.6837845165224468e-05 0.013764280275554942 -0.03435633843337706 0.017254811450787673 -0.032868780257124405 0.004675696158762591 0.01888243445291203 24.07117786053492 0.04460883118479878 -0.0275029176157711 28.844742605089298 -0.030448664540780802 0.005041428736023996 28.8322119190465 -0.009083092552167936 -0.019282048743896104 6.934485849506715 1.5899763415326054 14.1653531352289 -69.78510045472865 27.212117187108287 -9.996940916865178 -1.8472593124500671 -2.8511219796203218 -103.05756336191592 -10.162485605246335 -7.7714570800377505 3.951395860399769 -0.5201603670853118 0.05331133542682143 -8.106189123049393 0.024237834692725092 -0.003784595769253954 44.59186030547923 0.0015137686630857941 0.016843114483904888 44.61528378728395 12.4559353040308 -0.008042250858431292 0.023145641941688704 -0.013576787329310402 0.029334283017002576 -0.02993802558914663 0.020957737046317804 0.02315071567385536 0.028353871823390227 11.080811162881071 0.04549294003443862 0.009087792700430572 -0.014175575481588137 0.0015514161756060717 -0.02853254595609505 -0.015634332996506014 0.025073272657268133 0.005700612763245275 4.728708520705108 -0.001946181895087849 -0.006296207919853342 0.0005211884439005726 0.002409839548311224 0.04083950881203867 -0.00956707172162293 0.010190973569164158 -0.030396398800233246 -5.644983122040802 -0.008851079361821711 0.025179161844366894 -6.685670168113432 0.03205501958114583 0.020036820170736037 -6.760485902168416 0.02758771232142929 0.018076799846565624 -0.04519542765626536 0.014384795688034887 0.015116399421230898 8.022409649866312 3.5227054871148056 -19.23519248622894 -0.04663806989025974 10.349876705177586 -0.024160773842394668 -5.5926497498199215 -15.629196859631737 3.180778659758292 0.03416172546547878 -0.035857091597829044 -0.027732679173970133 0.008505087879336388 4.701270389725117 -0.0008118270738833721 12.493818780026468 -8.271344355033214 6.840437514555098 0.04181471186961546 46.397299433958096 0.027585054978654242 -4.352076142716061 -14.708080214318688 -3.8096538709204717 0.0023992984592398963 -0.04333127310550057 -0.028685061431027233 0.046854871976405685 -10.755225141415028 0.01301586840576325 
0.0384801756439492 -0.0018370870294338846 -0.006816227157251966 -0.024622543794177443 -0.03648045016489889 0.01986374269764216 -2.3829582600165145 -0.4130401840413922 -0.8544884741324151 -1.004450223251357 3.676463694725181 0.40655544701740426 -1.1816550181246186 -2.014447305859407 -0.4733130220974459 -0.2212567126646687 0.2145233736525597 -0.7642415991261126 -0.28809538370582266 13.825413937644727 1.0738551544935122 0.20075430692635776 1.134706021229524 1.0306122854153594 -0.07212129383782354 -13.02444490201209 0.14828302159328985 -4.461927714897976 1.7010649792521888 -15.107269589606108 70.56548138102738 19.597692729994368 10.098125814402353 10.193217718972896 2.7335949346610313 104.62838753304074 15.617073002769008 -0.4571804001441041 -4.383982180578245 4.532380708762452 -0.17002025746949243 -1.5476618121755235 0.00961730138682066 0.019850228081082572 -56.24210565820075 0.0072710321852324615 0.041941675788726346 -56.21980398549429 -38.80674306124632 -0.009187877754584725 -0.03475158826406756 0.011465648577475304 -0.0011528536259128028 -0.010738696431302751 0.03630548493489327 0.02988225775220057 0.013374884605139145 -36.661135988133914 0.022677014977982947 -0.016547774495559144 -0.01100240184938277 0.0495556700532084 -0.024863293183991893 -0.03890476675223201 -0.00368568737546568 0.03805718279672654 -19.795297617090686 -0.04236664761672352 -0.021083854466618604 -0.047148060428513494 0.04115566827878658 -0.035319570141150836 0.029202610892528607 0.00557096317886988 -0.019926964560991006 24.069634144099915 0.00044953685253290733 -0.03426319172479069 28.899753881979034 -0.0319468137108038 -0.007725738010953012 28.895696290528964 -0.02081088350251774 0.005434915136147763 6.771558626256752 1.5762144190484555 14.10938687112193 -69.74904063460166 27.88581452318277 -9.946637836313055 -3.294909261781971 -2.3965278717162226 -102.20099238451061 -10.793575098953813 -7.798467038745139 4.286863901102886 -0.46596264881435717 0.031619546794521856 -8.10617436769299 -0.027389790650609567 0.017483092723883743 44.60688655777584 -0.015475740537502699 0.035691284248931844 44.59941799475847 12.434859757455506 0.015663500279148906 -0.009008171783497327 0.006398990280483732 -0.007615578656491921 0.00569500068628698 0.01854892411343317 0.018358786573162495 0.019584240894585263 11.097704361221608 0.0425194250689778 0.03038422690311871 -0.0022399222634767887 0.028105703199592835 -0.032768441745000994 0.03743005213628569 0.03183588228314071 -0.007522532095122828 4.812041430397223 -0.025253712406321783 0.017505179165072084 -0.012951161587988771 0.014610431856480458 -0.024849676894197453 0.006976732070722034 -0.007282662048854066 -0.010397559989835376 -5.623754656704364 0.014370080734559098 0.011793132369361274 -6.753961532853566 -0.007192023153320593 0.025664898178606857 -6.69821823552166 -0.012552980257875655 0.01009157704976578 0.025361938497618988 -0.01132095715888052 0.002252143569779151 8.088528793600487 3.5347641548859947 -19.236858674305047 -0.038993781202743445 10.415360315205929 -0.012915189096853442 -5.634993191011987 -15.70260244275589 3.1760743467275456 -0.00419946061658124 -0.03985142788426678 -0.0029488116528206655 -0.030516524133749195 4.726531180086827 -0.006122871172920894 12.44447451584535 -8.286279286880031 6.927785226337789 0.01349836012289985 46.38133821662271 0.033553526230094485 -4.311951222039832 -14.753760438578338 -3.868550209059015 -0.013063467937709421 -0.025387785188364462 -0.014005990532164852 0.048983644274697 -10.779519825586362 0.037216621266062254 
-0.04161945220409305 0.011174580980340628 0.014816380862993847 0.037220544147224394 0.003610183489715315 -0.002477440601861269 -2.28727545160608 -0.25786643389058395 -0.8928752757247731 -0.983991394255713 3.6662307993760415 0.3690263335743799 -1.114006921884032 -2.031936783499317 -0.5126334221527561 -0.20012356673486975 0.25176585220754083 -0.70916143814498 -0.3566884960532898 13.71721791035732 1.100375881460627 0.18151303556008555 1.018836587284334 1.0078945087184 -0.12518581604770848 -13.13794299607662 0.1217017710397831 -4.313080102799185 1.70700809543056 -15.100171384185437 70.76525683990275 19.580511833392414 10.229393766072896 11.032162101857491 2.6719500237767067 104.35288940337931 15.568126320849625 -0.4376386382187285 -4.333041528518125 4.5419941470212795 -0.1526690944474029 -1.5957407027540724 -0.008238745639765873 -0.016738668678637072 -56.236634097169954 0.035609739382930036 0.03855628057437777 -56.27543354272062 -38.79462357945852 -0.019727199326316638 -0.02398300534552656 0.003028478400377112 -0.015593864927552733 0.03264490483071339 -0.006912153620622419 -0.002226143828247077 0.04954527986177798 -36.652623405887645 0.03598723801554695 0.01211859976126151 0.0346438284963179 -0.010060081989397592 0.032844162692773175 0.007184838128440844 -0.0010059412411188814 -0.001009689082985108 -19.789781549026504 -0.007746990039390227 -0.023401687134818272 -0.01547045572412821 -0.024818141151726147 -0.028399090473565876 0.025936956863022533 0.016546462620033377 -0.02609621724858286 24.07414320870627 0.008930144672332165 0.03015288712400329 28.861625703998882 0.023137175478778343 -0.017969296066569777 28.836830755298255 -0.007798556206242973 0.04901424522328385 6.582224353929538 1.5199987335577556 14.055358748080403 -69.7574431541206 27.883193144362085 -9.991612595722552 -4.99528165368527 -1.8642550327342478 -101.39598711088964 -10.981589702247234 -7.626553497418665 4.300660281104177 -0.4286330787915734 0.11621392710587004 -8.170042838604013 -0.037539764269922206 0.028192452587278746 44.54856334739995 0.01890697062695146 0.018070943296601735 44.589426520842444 12.427623885889064 -0.01904749261842802 -0.009194159942693044 -0.0009656604197009158 0.04771353583851961 -0.03118088182530909 -0.014859395777201917 0.019646365329896436 -0.03860364673360953 11.12341438008382 -0.011333727905832936 -0.040473215774655874 -0.006206134091595643 -0.018406855115762174 -0.022060949487754222 0.0075102059441997035 -0.04770321273495717 0.0392533558328972 4.7917221149036795 -0.01628088680409282 0.04875190057327426 0.037192115226173605 0.012283564230799984 -0.03428175060950223 0.026522599790197374 0.02810043288506136 -0.0017876580281799598 -5.5705072127022195 0.01239830743335939 -0.005028912710088249 -6.687557764222019 -0.036092534878280964 -0.007633392698281199 -6.730443137911369 -0.030415923402243174 -0.04975690223877468 -0.012088831702854012 0.03773621279505076 0.035526611938145984 8.038721830748445 3.5386223820152014 -19.178709259750253 -0.004012608134505704 10.39662564813871 0.029566455624905646 -5.610796741092002 -15.641665486373142 3.159663839987348 0.009657563423994745 -0.01992512535310686 -0.009012824075304463 0.03738793807111887 4.7401997074631534 0.015652077456497614 12.462847388867491 -8.188675196697458 6.902943861629083 0.04145399125097801 46.38313951592933 0.04597996215297766 -4.352354833078497 -14.767257649591997 -3.819785728609622 0.028801197596835533 0.04349214853802562 0.01995904700469511 -0.035582921564346885 -10.739724390413047 0.011007037349463969 
0.04303364742493564 -0.04914925842069528 -0.043443778940590524 0.026267375034144738 0.026755410576169026 -0.04218769792520524 -2.318551090801248 -0.13136022854475424 -0.8163813306940308 -0.98348336997936 3.675865435844916 0.3990124716169227 -1.1479347120862644 -1.9608625449891668 -0.5044603259005899 -0.19924762992580733 0.23311326817867978 -0.7058112436625312 -0.3115659318632644 13.56831705264786 1.08734102356725 0.16578610193087132 1.0264237832551184 1.0268999459725372 -0.10919759547260834 -13.270739834674215 0.06907840494803824 -4.204116662960503 1.683115741054886 -15.03502983944313 70.82885343560633 19.267727994566986 10.23764962110514 12.058523362010503 2.7552590467321276 103.61581365056263 15.439320701316952 -0.4419067808996367 -4.255718676837461 4.573133846844849 -0.12363609663794843 -1.6019613072602397 -0.018547309483796712 0.04109269670752709 -56.19529014659585 -0.04051791067582113 0.02948185841876108 -56.22596510242676 -38.79828325932514 -0.04012151132848029 0.025151766811778407 0.0291718073723229 -0.006628574728864664 -0.009041551544906492 -0.029307516582528895 -0.0006387813581821549 0.0023704496328376214 -36.68063419875485 0.03730478831960073 0.0351896822835062 -0.03725231308140896 -0.0029385762512762984 0.0011691562472331953 -0.012140175588777426 -0.041566818315726055 -0.04738801531788164 -19.756561762881258 -0.048539127941777394 -0.04845133355219401 -0.03547126274820644 -0.01483070416418955 0.04842735003212541 0.025918530282093528 -0.01728851330771942 -0.0017869745644223062 24.05424957015272 0.03325316248438358 0.018899519064420105 28.901273245401534 0.03706264287397014 0.016428482625679437 28.823605539200276 0.036317010342670666 -0.032509947350183026 6.510647671344869 1.548589178876246 14.041243766306298 -69.76979437213441 27.751546399044802 -10.374725662894594 -6.5933078164268615 -1.4364711075459167 -100.58452639535068 -10.94561392195226 -7.21492535149405 4.126142313197326 -0.4399805349161323 0.11162407420237584 -8.167290647377934 0.002178952461994915 0.010233149208162231 44.56390692029382 0.0028620318117485058 -0.04303974186067675 44.554854096757516 12.468835681943096 0.027810418956782417 0.029735290200843062 -0.03954714758669235 -0.04340696262087118 0.015324274171961413 -0.01212732087698566 0.009061404647798713 0.019208532218119433 11.132052999260274 0.01535406437761738 0.01315013667261519 0.04290565469838052 -0.010754459260705108 -0.024699381005727935 0.02473000747310328 -0.03114677718482885 -0.04273709253653628 4.748112882445146 -0.008437142273678287 0.01231454857480736 0.029261710162431336 0.023574698024472936 -0.03363969460507591 -0.0029642036175246632 0.03708468955905279 -0.02518595779113996 -5.5834439269806815 0.0336191589961684 0.010340076767053197 -6.736970622284287 0.0023207798404492994 -0.02447563680479556 -6.746973048268865 0.01442403810753355 -0.019661688072551246 0.025788613972108 -0.022382148344048176 0.04313321545541643 8.036174578813881 3.4598114274129337 -19.24408143609333 0.045398846047054096 10.377968080372215 0.01484019379585794 -5.63283543483852 -15.653400820050118 3.145109466274276 -0.04536716321166284 -0.010377686941553048 0.012560006431744592 0.03880562365510311 4.722214763481297 -0.005347492735148508 12.471233448096388 -8.251032026463221 6.8609188992529075 -0.006150061558044222 46.38023886814787 0.013874174635565936 -4.315415203954714 -14.770581372113416 -3.8546635009596724 -0.03487972004709123 0.03608853661973661 -0.022401415351424626 -0.045221762935436886 -10.738243292928848 0.012179025139999789 
